Patient4_TMGait_0pt3_03_left_27_GRF.mot
version=1
nRows=58
nColumns=19
inDegrees=no
endheader
time	F1x	F1y	F1z	M1x	M1y	M1z	F2x	F2y	F2z	M2x	M2y	M2z	EC1x	EC1y	EC1z	EC2x	EC2y	EC2z
47.54	-1.5472	2.8587	0.29481	-1.1499	-0.72255	8.2767	-22.183	778.7439	-47.242	263.4161	56.8586	759.1459	-0.0592	0.0182	-0.0073	-0.0462	0.0165	0.9585
47.5587	-1.3785	2.4033	0.25875	-0.94695	-0.65158	6.1113	-20.7719	777.0422	-47.6712	263.5539	56.3897	754.2582	-0.0592	0.0182	-0.0073	-0.0462	0.0165	0.9585
47.5774	-1.2429	2.032	0.2247	-0.77548	-0.59744	4.2653	-19.3923	776.7601	-48.0779	264.1472	55.8222	750.2753	-0.0592	0.0182	-0.0073	-0.0462	0.0165	0.9585
47.5961	-1.1467	1.7681	0.19851	-0.64947	-0.56486	2.8567	-18.2696	778.6049	-48.4866	265.37	55.2733	748.1458	-0.0592	0.0182	-0.0073	-0.0462	0.0165	0.9585
47.6149	-1.0891	1.6047	0.18449	-0.57046	-0.55547	1.8911	-17.5565	783.031	-48.9316	267.3378	54.8483	748.5271	-0.0592	0.0182	-0.0073	-0.0462	0.0165	0.9585
47.6336	-1.0689	1.5186	0.18382	-0.52942	-0.56921	1.3057	-17.2552	790.0286	-49.4301	270.0381	54.5855	751.5258	-0.0592	0.0182	-0.0073	-0.0462	0.0165	0.9585
47.6523	-1.0828	1.4741	0.19368	-0.51091	-0.60165	0.99827	-17.1953	799.0538	-49.9668	273.3004	54.4317	756.6167	-0.0592	0.0182	-0.0073	-0.0462	0.0165	0.9585
47.671	-1.1272	1.4225	0.21095	-0.49485	-0.64706	0.85218	-17.115	809.1009	-50.4967	276.81	54.2688	762.7589	-0.0592	0.0182	-0.0073	-0.0462	0.0165	0.9585
47.6897	-1.2005	1.3063	0.23104	-0.456	-0.70042	0.74569	-16.7635	818.8917	-50.9566	280.162	53.9622	768.6317	-0.0592	0.0182	-0.0073	-0.0462	0.0165	0.9585
47.7084	-1.3029	1.0518	0.2499	-0.36435	-0.75685	0.55184	-15.9515	827.0944	-51.2764	282.9316	53.3889	772.8855	-0.0592	0.0182	-0.0073	-0.0462	0.0165	0.9585
47.7271	-1.4322	0.57875	0.26365	-0.18755	-0.81044	0.15218	-14.5696	832.5031	-51.3882	284.7316	52.4508	774.3302	-0.0592	0.0182	-0.0073	-0.0462	0.0165	0.9585
47.7459	-1.5785	-0.18988	0.26796	0.10546	-0.85372	-0.55209	-12.574	834.1672	-51.2316	285.2558	51.0769	772.0517	-0.0592	0.0182	-0.0073	-0.0462	0.0165	0.9585
47.7646	-1.7159	-1.3077	0.25829	0.53621	-0.87565	-1.6268	-9.9749	831.4984	-50.7613	284.318	49.23	765.5074	-0.0592	0.0182	-0.0073	-0.0462	0.0165	0.9585
47.7833	-1.8049	-2.7753	0.23013	1.1071	-0.86025	-3.0736	-6.8279	824.3501	-49.9576	281.8791	46.9114	754.5905	-0.0592	0.0182	-0.0073	-0.0462	0.0165	0.9585
47.802	-1.7892	-4.5024	0.18168	1.7853	-0.78721	-4.8014	-3.2186	813.0562	-48.8382	278.0582	44.1652	739.6551	-0.0592	0.0182	-0.0073	-0.0462	0.0165	0.9585
47.8207	-1.5932	-6.2589	0.11972	2.4796	-0.63647	-6.5786	0.7597	798.3942	-47.4721	273.1193	41.0842	721.4633	-0.0592	0.0182	-0.0073	-0.0462	0.0165	0.9585
47.8394	-1.1243	-7.6108	0.0604	3.0158	-0.38828	-7.9593	5.0031	781.4572	-45.9745	267.4288	37.8095	701.0675	-0.0592	0.0182	-0.0073	-0.0462	0.0165	0.9585
47.8581	-0.28331	-7.8503	0.029442	3.1106	-0.02987	-8.2131	9.3878	763.4495	-44.4852	261.3856	34.5103	679.6318	-0.0592	0.0182	-0.0073	-0.0462	0.0165	0.9585
47.8769	1.0213	-5.9501	0.065997	2.3524	0.43766	-6.2872	13.7536	745.4392	-43.1473	255.3386	31.3694	658.2166	-0.0592	0.0182	-0.0073	-0.0462	0.0165	0.9585
47.8956	2.8458	-0.56336	0.2188	0.20314	0.9915	-0.80007	17.8981	728.1426	-42.0805	249.5167	28.565	637.5846	-0.0592	0.0182	-0.0073	-0.0462	0.0165	0.9585
47.9143	5.1664	9.8948	0.54288	-3.9703	1.5717	9.8835	21.5799	711.758	-41.3499	243.9751	26.2403	618.0516	-0.0592	0.0182	-0.0073	-0.0462	0.0165	0.9585
47.933	7.8118	27.0411	1.0984	-10.8145	2.0551	27.435	24.5496	695.868	-40.9355	238.5659	24.4704	599.4011	-0.0592	0.0182	-0.0073	-0.0462	0.0165	0.9585
47.9517	10.3524	52.1521	1.9405	-20.841	2.2196	53.1746	26.5668	679.4221	-40.7122	232.9328	23.2425	580.8751	-0.0592	0.0182	-0.0073	-0.0462	0.0165	0.9585
47.9704	11.9711	85.6533	3.1127	-34.2238	1.7026	87.5542	27.3976	660.8182	-40.4698	226.5344	22.4732	561.2463	-0.0592	0.0182	-0.0073	-0.0462	0.0165	0.9585
47.9891	11.85	126.7802	4.6774	-50.6587	0.12389	129.8132	26.8564	638.2439	-39.9585	218.7586	22.0289	539.0967	-0.0592	0.0182	-0.0073	-0.0462	0.0165	0.9585
48.0079	9.8896	173.7888	6.8001	-69.4303	-2.7299	178.1487	24.8795	610.2355	-38.9434	209.115	21.7412	513.2697	-0.0592	0.0182	-0.0073	-0.0462	0.0165	0.9585
48.0266	6.4899	223.7467	9.7826	-89.3366	-7.016	229.4634	21.5737	576.1584	-37.2667	197.3978	21.4482	483.2394	-0.0592	0.0182	-0.0073	-0.0462	0.0165	0.9585
48.0453	2.3387	273.4104	13.6393	-109.0784	-12.4688	280.2808	17.2658	536.647	-34.8979	183.8384	21.0189	449.4487	-0.0592	0.0182	-0.0073	-0.0462	0.0165	0.9585
48.064	-1.8847	320.7954	17.906	-127.8916	-18.3222	328.4141	12.4857	493.6755	-31.9509	169.1262	20.3689	413.372	-0.0592	0.0182	-0.0073	-0.0462	0.0165	0.9585
48.0827	-5.674	365.1718	22.0916	-145.5175	-23.8728	373.0114	7.8367	449.9394	-28.6375	154.1965	19.4606	377.0391	-0.0592	0.0182	-0.0073	-0.0462	0.0165	0.9585
48.1014	-8.6268	406.0668	25.7935	-161.7934	-28.5701	413.5324	3.8426	408.033	-25.2091	139.9439	18.3036	342.4062	-0.0592	0.0182	-0.0073	-0.0462	0.0165	0.9585
48.1201	-10.4152	442.6724	28.7728	-176.41	-32.0702	449.1434	0.84557	369.9137	-21.9437	127.0315	16.978	310.943	-0.0592	0.0182	-0.0073	-0.0462	0.0165	0.9585
48.1389	-10.8603	473.8837	30.9886	-188.9238	-34.2902	478.7774	-1.0333	336.7174	-19.1275	115.8249	15.6406	283.4961	-0.0592	0.0182	-0.0073	-0.0462	0.0165	0.9585
48.1576	-10.0139	498.7913	32.5163	-198.9579	-35.3515	501.6321	-1.8655	308.7747	-16.9705	106.4081	14.4604	260.2981	-0.0592	0.0182	-0.0073	-0.0462	0.0165	0.9585
48.1763	-8.1536	517.2243	33.45	-206.4258	-35.4735	517.6928	-1.8325	285.7743	-15.5365	98.6503	13.5354	241.0841	-0.0592	0.0182	-0.0073	-0.0462	0.0165	0.9585
48.195	-5.6994	529.9635	33.8629	-211.6228	-34.899	527.9196	-1.1649	266.9578	-14.7429	92.2787	12.8719	225.2401	-0.0592	0.0182	-0.0073	-0.0462	0.0165	0.9585
48.2137	-3.1143	538.5454	33.8329	-215.1481	-33.8837	534.0121	-0.098615	251.2794	-14.4146	86.9309	12.4095	211.9201	-0.0592	0.0182	-0.0073	-0.0462	0.0165	0.9585
48.2324	-0.83	544.902	33.5079	-217.7553	-32.7321	538.0235	1.1586	237.5135	-14.3554	82.1899	12.0605	200.136	-0.0592	0.0182	-0.0073	-0.0462	0.0165	0.9585
48.2511	0.81412	551.0865	33.1324	-220.2388	-31.8001	542.0726	2.426	224.3238	-14.3899	77.6056	11.7442	188.8136	-0.0592	0.0182	-0.0073	-0.0462	0.0165	0.9585
48.2699	1.6289	559.0154	33.0037	-223.3363	-31.433	548.0776	3.5381	210.3746	-14.38	72.7291	11.4075	176.8725	-0.0592	0.0182	-0.0073	-0.0462	0.0165	0.9585
48.2886	1.5963	570.1926	33.3829	-227.6264	-31.8741	557.4814	4.3342	194.5966	-14.227	67.2015	11.0271	163.4451	-0.0592	0.0182	-0.0073	-0.0462	0.0165	0.9585
48.3073	0.85767	585.4327	34.4122	-233.4279	-33.1907	570.9942	4.6685	176.4211	-13.8661	60.8356	10.602	148.0755	-0.0592	0.0182	-0.0073	-0.0462	0.0165	0.9585
48.326	-0.32854	604.6774	36.0953	-240.7259	-35.2713	588.4431	4.4647	155.8849	-13.2565	53.655	10.1292	130.8018	-0.0592	0.0182	-0.0073	-0.0462	0.0165	0.9585
48.3447	-1.6777	627.0776	38.3271	-249.1945	-37.8866	608.8827	3.764	133.5983	-12.3861	45.8819	9.5914	112.1271	-0.0592	0.0182	-0.0073	-0.0462	0.0165	0.9585
48.3634	-2.9778	651.2745	40.9378	-258.2994	-40.7727	630.9141	2.7169	110.5698	-11.2817	37.874	8.9649	92.8728	-0.0592	0.0182	-0.0073	-0.0462	0.0165	0.9585
48.3821	-4.1496	675.7907	43.7427	-267.4475	-43.711	653.0883	1.5332	87.9512	-9.9991	30.0353	8.2279	73.974	-0.0592	0.0182	-0.0073	-0.0462	0.0165	0.9585
48.4009	-5.2214	699.3852	46.5662	-276.1302	-46.5422	674.2347	0.41236	66.8075	-8.5917	22.7367	7.3606	56.3014	-0.0592	0.0182	-0.0073	-0.0462	0.0165	0.9585
48.4196	-6.2463	721.2079	49.2631	-283.9924	-49.1537	693.5822	-0.5054	48.0043	-7.102	16.2745	6.3543	40.5738	-0.0592	0.0182	-0.0073	-0.0462	0.0165	0.9585
48.4383	-7.2262	740.78	51.7523	-290.833	-51.4815	710.7046	-1.1341	32.1526	-5.5771	10.851	5.224	27.3084	-0.0592	0.0182	-0.0073	-0.0462	0.0165	0.9585
48.457	-8.0968	757.9604	54.0209	-296.5986	-53.5061	725.4671	-1.4306	19.5657	-4.0806	6.5645	4.014	16.7746	-0.0592	0.0182	-0.0073	-0.0462	0.0165	0.9585
48.4757	-8.7528	772.914	56.0905	-301.3759	-55.2264	737.9951	-1.4227	10.2635	-2.7031	3.4128	2.814	8.9938	-0.0592	0.0182	-0.0073	-0.0462	0.0165	0.9585
48.4944	-9.0864	785.9959	57.9763	-305.3499	-56.6319	748.572	-1.2237	3.9929	-1.5556	1.3005	1.7565	3.7569	-0.0592	0.0182	-0.0073	-0.0462	0.0165	0.9585
48.5131	-9.0135	797.6351	59.6555	-308.7558	-57.6768	757.5424	-0.95043	0.24529	-0.69524	0.047152	0.92648	0.64118	-0.0592	0.0182	-0.0073	-0.0462	0.0165	0.9585
48.5319	-8.4844	808.2357	61.0566	-311.8296	-58.2756	765.2304	-0.67774	-1.6025	-0.10848	-0.56368	0.33391	-0.87279	-0.0592	0.0182	-0.0073	-0.0462	0.0165	0.9585
48.5506	-7.4941	818.0037	62.0808	-314.7273	-58.3298	771.7798	-0.44866	-2.151	0.25145	-0.7383	-0.050351	-1.2925	-0.0592	0.0182	-0.0073	-0.0462	0.0165	0.9585
48.5693	-6.0622	826.7903	62.6344	-317.4517	-57.7547	777.0172	-0.28261	-1.9066	0.44226	-0.65012	-0.26928	-1.0531	-0.0592	0.0182	-0.0073	-0.0462	0.0165	0.9585
48.588	-4.2305	834.0678	62.6435	-319.8369	-56.4935	780.4403	-0.17929	-1.2597	0.51831	-0.43182	-0.36584	-0.48761	-0.0592	0.0182	-0.0073	-0.0462	0.0165	0.9585
48.6067	-2.0601	839.0193	62.0635	-321.5805	-54.5307	781.3108	-0.12864	-0.49363	0.52308	-0.17683	-0.37962	0.16543	-0.0592	0.0182	-0.0073	-0.0462	0.0165	0.9585
